<svg width="121" height="24" viewBox="0 0 121 24" fill="none" xmlns="http://www.w3.org/2000/svg">
<path d="M24.976 18L22.416 13.552H21.024V18H19.2V6.88H23.04C23.8933 6.88 24.6133 7.02933 25.2 7.328C25.7973 7.62667 26.24 8.02667 26.528 8.528C26.8267 9.02933 26.976 9.58933 26.976 10.208C26.976 10.9333 26.7627 11.5947 26.336 12.192C25.92 12.7787 25.2747 13.1787 24.4 13.392L27.152 18H24.976ZM21.024 12.096H23.04C23.7227 12.096 24.2347 11.9253 24.576 11.584C24.928 11.2427 25.104 10.784 25.104 10.208C25.104 9.632 24.9333 9.184 24.592 8.864C24.2507 8.53333 23.7333 8.368 23.04 8.368H21.024V12.096ZM37.3894 13.376C37.3894 13.7067 37.368 14.0053 37.3254 14.272H30.5894C30.6427 14.976 30.904 15.5413 31.3734 15.968C31.8427 16.3947 32.4187 16.608 33.1014 16.608C34.0827 16.608 34.776 16.1973 35.1814 15.376H37.1494C36.8827 16.1867 36.3974 16.8533 35.6934 17.376C35 17.888 34.136 18.144 33.1014 18.144C32.2587 18.144 31.5014 17.9573 30.8294 17.584C30.168 17.2 29.6454 16.6667 29.2614 15.984C28.888 15.2907 28.7014 14.4907 28.7014 13.584C28.7014 12.6773 28.8827 11.8827 29.2454 11.2C29.6187 10.5067 30.136 9.97333 30.7974 9.6C31.4694 9.22667 32.2374 9.04 33.1014 9.04C33.9334 9.04 34.6747 9.22133 35.3254 9.584C35.976 9.94667 36.4827 10.4587 36.8454 11.12C37.208 11.7707 37.3894 12.5227 37.3894 13.376ZM35.4854 12.8C35.4747 12.128 35.2347 11.5893 34.7654 11.184C34.296 10.7787 33.7147 10.576 33.0214 10.576C32.392 10.576 31.8534 10.7787 31.4054 11.184C30.9574 11.5787 30.6907 12.1173 30.6054 12.8H35.4854ZM42.3844 18.144C41.691 18.144 41.067 18.0213 40.5124 17.776C39.9684 17.52 39.5364 17.1787 39.2164 16.752C38.8964 16.3147 38.7257 15.8293 38.7044 15.296H40.5924C40.6244 15.6693 40.8004 15.984 41.1204 16.24C41.451 16.4853 41.8617 16.608 42.3524 16.608C42.8644 16.608 43.259 16.512 43.5364 16.32C43.8244 16.1173 43.9684 15.8613 43.9684 15.552C43.9684 15.2213 43.8084 14.976 43.4884 14.816C43.179 14.656 42.683 14.48 42.0004 14.288C41.339 14.1067 40.8004 13.9307 40.3844 13.76C39.9684 13.5893 39.6057 13.328 39.2964 12.976C38.9977 12.624 38.8484 12.16 38.8484 11.584C38.8484 11.1147 38.987 10.688 39.2644 10.304C39.5417 9.90933 39.9364 9.6 40.4484 9.376C40.971 9.152 41.5684 9.04 42.2404 9.04C43.243 9.04 44.0484 9.296 44.6564 9.808C45.275 10.3093 45.6057 10.9973 45.6484 11.872H43.8244C43.7924 11.4773 43.6324 11.1627 43.3444 10.928C43.0564 10.6933 42.667 10.576 42.1764 10.576C41.6964 10.576 41.3284 10.6667 41.0724 10.848C40.8164 11.0293 40.6884 11.2693 40.6884 11.568C40.6884 11.8027 40.7737 12 40.9444 12.16C41.115 12.32 41.323 12.448 41.5684 12.544C41.8137 12.6293 42.1764 12.7413 42.6564 12.88C43.2964 13.0507 43.819 13.2267 44.2244 13.408C44.6404 13.5787 44.9977 13.8347 45.2964 14.176C45.595 14.5173 45.7497 14.9707 45.7604 15.536C45.7604 16.0373 45.6217 16.4853 45.3444 16.88C45.067 17.2747 44.6724 17.584 44.1604 17.808C43.659 18.032 43.067 18.144 42.3844 18.144ZM55.7153 9.184V18H53.8913V16.96C53.6033 17.3227 53.2246 17.6107 52.7553 17.824C52.2966 18.0267 51.8059 18.128 51.2833 18.128C50.5899 18.128 49.9659 17.984 49.4113 17.696C48.8673 17.408 48.4353 16.9813 48.1153 16.416C47.8059 15.8507 47.6513 15.168 47.6513 14.368V9.184H49.4593V14.096C49.4593 14.8853 49.6566 15.4933 50.0513 15.92C50.4459 16.336 50.9846 16.544 51.6673 16.544C52.3499 16.544 52.8886 16.336 53.2833 15.92C53.6886 15.4933 53.8913 14.8853 53.8913 14.096V9.184H55.7153ZM68.7939 9.04C69.4872 9.04 70.1059 9.184 70.6499 9.472C71.2045 9.76 71.6365 10.1867 71.9459 10.752C72.2659 11.3173 72.4259 12 72.4259 12.8V18H70.6179V13.072C70.6179 12.2827 70.4205 11.68 70.0259 11.264C69.6312 10.8373 69.0925 10.624 68.4099 10.624C67.7272 10.624 67.1832 10.8373 66.7779 11.264C66.3832 11.68 66.1859 12.2827 66.1859 13.072V18H64.3779V13.072C64.3779 12.2827 64.1805 11.68 63.7859 11.264C63.3912 10.8373 62.8525 10.624 62.1699 10.624C61.4872 10.624 60.9432 10.8373 60.5379 11.264C60.1432 11.68 59.9459 12.2827 59.9459 13.072V18H58.1219V9.184H59.9459V10.192C60.2445 9.82933 60.6232 9.54667 61.0819 9.344C61.5405 9.14133 62.0312 9.04 62.5539 9.04C63.2579 9.04 63.8872 9.18933 64.4419 9.488C64.9965 9.78667 65.4232 10.2187 65.7219 10.784C65.9885 10.2507 66.4045 9.82933 66.9699 9.52C67.5352 9.2 68.1432 9.04 68.7939 9.04ZM82.8269 13.376C82.8269 13.7067 82.8055 14.0053 82.7629 14.272H76.0269C76.0802 14.976 76.3415 15.5413 76.8109 15.968C77.2802 16.3947 77.8562 16.608 78.5389 16.608C79.5202 16.608 80.2135 16.1973 80.6189 15.376H82.5869C82.3202 16.1867 81.8349 16.8533 81.1309 17.376C80.4375 17.888 79.5735 18.144 78.5389 18.144C77.6962 18.144 76.9389 17.9573 76.2669 17.584C75.6055 17.2 75.0829 16.6667 74.6989 15.984C74.3255 15.2907 74.1389 14.4907 74.1389 13.584C74.1389 12.6773 74.3202 11.8827 74.6829 11.2C75.0562 10.5067 75.5735 9.97333 76.2349 9.6C76.9069 9.22667 77.6749 9.04 78.5389 9.04C79.3709 9.04 80.1122 9.22133 80.7629 9.584C81.4135 9.94667 81.9202 10.4587 82.2829 11.12C82.6455 11.7707 82.8269 12.5227 82.8269 13.376ZM80.9229 12.8C80.9122 12.128 80.6722 11.5893 80.2029 11.184C79.7335 10.7787 79.1522 10.576 78.4589 10.576C77.8295 10.576 77.2909 10.7787 76.8429 11.184C76.3949 11.5787 76.1282 12.1173 76.0429 12.8H80.9229ZM86.4459 6.16V18H84.6219V6.16H86.4459ZM88.2326 13.552C88.2326 12.6667 88.414 11.8827 88.7766 11.2C89.15 10.5173 89.6513 9.98933 90.2806 9.616C90.9206 9.232 91.6246 9.04 92.3926 9.04C93.086 9.04 93.6886 9.17867 94.2006 9.456C94.7233 9.72267 95.1393 10.0587 95.4486 10.464V9.184H97.2886V18H95.4486V16.688C95.1393 17.104 94.718 17.4507 94.1846 17.728C93.6513 18.0053 93.0433 18.144 92.3606 18.144C91.6033 18.144 90.91 17.952 90.2806 17.568C89.6513 17.1733 89.15 16.6293 88.7766 15.936C88.414 15.232 88.2326 14.4373 88.2326 13.552ZM95.4486 13.584C95.4486 12.976 95.3206 12.448 95.0646 12C94.8193 11.552 94.494 11.2107 94.0886 10.976C93.6833 10.7413 93.246 10.624 92.7766 10.624C92.3073 10.624 91.87 10.7413 91.4646 10.976C91.0593 11.2 90.7286 11.536 90.4726 11.984C90.2273 12.4213 90.1046 12.944 90.1046 13.552C90.1046 14.16 90.2273 14.6933 90.4726 15.152C90.7286 15.6107 91.0593 15.9627 91.4646 16.208C91.8806 16.4427 92.318 16.56 92.7766 16.56C93.246 16.56 93.6833 16.4427 94.0886 16.208C94.494 15.9733 94.8193 15.632 95.0646 15.184C95.3206 14.7253 95.4486 14.192 95.4486 13.584ZM101.812 10.672V15.552C101.812 15.8827 101.887 16.1227 102.036 16.272C102.196 16.4107 102.463 16.48 102.836 16.48H103.956V18H102.516C101.695 18 101.066 17.808 100.628 17.424C100.191 17.04 99.9724 16.416 99.9724 15.552V10.672H98.9324V9.184H99.9724V6.992H101.812V9.184H103.956V10.672H101.812ZM107.766 10.672V15.552C107.766 15.8827 107.84 16.1227 107.99 16.272C108.15 16.4107 108.416 16.48 108.79 16.48H109.91V18H108.47C107.648 18 107.019 17.808 106.582 17.424C106.144 17.04 105.926 16.416 105.926 15.552V10.672H104.886V9.184H105.926V6.992H107.766V9.184H109.91V10.672H107.766ZM119.671 13.376C119.671 13.7067 119.649 14.0053 119.607 14.272H112.871C112.924 14.976 113.185 15.5413 113.655 15.968C114.124 16.3947 114.7 16.608 115.383 16.608C116.364 16.608 117.057 16.1973 117.463 15.376H119.431C119.164 16.1867 118.679 16.8533 117.975 17.376C117.281 17.888 116.417 18.144 115.383 18.144C114.54 18.144 113.783 17.9573 113.111 17.584C112.449 17.2 111.927 16.6667 111.543 15.984C111.169 15.2907 110.983 14.4907 110.983 13.584C110.983 12.6773 111.164 11.8827 111.527 11.2C111.9 10.5067 112.417 9.97333 113.079 9.6C113.751 9.22667 114.519 9.04 115.383 9.04C116.215 9.04 116.956 9.22133 117.607 9.584C118.257 9.94667 118.764 10.4587 119.127 11.12C119.489 11.7707 119.671 12.5227 119.671 13.376ZM117.767 12.8C117.756 12.128 117.516 11.5893 117.047 11.184C116.577 10.7787 115.996 10.576 115.303 10.576C114.673 10.576 114.135 10.7787 113.687 11.184C113.239 11.5787 112.972 12.1173 112.887 12.8H117.767Z" fill="black"/>
<path d="M8.55755 11.8275C8.55755 9.25502 10.5001 7.14002 13.0801 6.90752L15.2551 6.71252C15.1126 6.53252 14.9626 6.36002 14.7976 6.19502C12.1801 3.57752 7.44755 4.05002 4.25255 7.25252C2.72255 8.78252 1.76255 10.7025 1.54505 12.66C1.41755 13.8075 1.56005 14.88 1.93505 15.84L5.66255 15.225C7.34255 14.9475 8.56505 13.5225 8.56505 11.835L8.55755 11.8275Z" fill="#D19D3D"/>
<path d="M13.215 8.40747C11.415 8.57247 10.0575 10.0425 10.0575 11.835C10.0575 14.2575 8.31002 16.3125 5.90252 16.71L2.70752 17.235C2.85752 17.43 3.02252 17.625 3.20252 17.805C4.31252 18.915 5.82002 19.5075 7.50752 19.5075C7.78502 19.5075 8.06252 19.4925 8.34002 19.4625C10.2975 19.245 12.225 18.285 13.7475 16.755C15.27 15.225 16.2375 13.305 16.455 11.3475C16.5825 10.2 16.44 9.11997 16.065 8.15997L13.2225 8.41497L13.215 8.40747Z" fill="#D19D3D"/>
</svg>
